ModelForces
version=1
nRows=4
nColumns=155
inDegrees=no

This file contains the forces exerted on a model during a simulation.

A force is a generalized force, meaning that it can be either a force (N) or a torque (Nm).

Units are S.I. units (second, meters, Newtons, ...)
Angles are in degrees.

endheader
time	glut_med1_r	glut_med2_r	glut_med3_r	glut_min1_r	glut_min2_r	glut_min3_r	semimem_r	semiten_r	bifemlh_r	bifemsh_r	sar_r	add_long_r	add_brev_r	add_mag1_r	add_mag2_r	add_mag3_r	tfl_r	pect_r	grac_r	glut_max1_r	glut_max2_r	glut_max3_r	iliacus_r	psoas_r	quad_fem_r	gem_r	peri_r	rect_fem_r	vas_med_r	vas_int_r	vas_lat_r	med_gas_r	lat_gas_r	soleus_r	tib_post_r	flex_dig_r	flex_hal_r	tib_ant_r	per_brev_r	per_long_r	per_tert_r	ext_dig_r	ext_hal_r	glut_med1_l	glut_med2_l	glut_med3_l	glut_min1_l	glut_min2_l	glut_min3_l	semimem_l	semiten_l	bifemlh_l	bifemsh_l	sar_l	add_long_l	add_brev_l	add_mag1_l	add_mag2_l	add_mag3_l	tfl_l	pect_l	grac_l	glut_max1_l	glut_max2_l	glut_max3_l	iliacus_l	psoas_l	quad_fem_l	gem_l	peri_l	rect_fem_l	vas_med_l	vas_int_l	vas_lat_l	med_gas_l	lat_gas_l	soleus_l	tib_post_l	flex_dig_l	flex_hal_l	tib_ant_l	per_brev_l	per_long_l	per_tert_l	ext_dig_l	ext_hal_l	ercspn_r	ercspn_l	intobl_r	intobl_l	extobl_r	extobl_l	femur_lat_meniscii_r.femur_lat_r.force.X	femur_lat_meniscii_r.femur_lat_r.force.Y	femur_lat_meniscii_r.femur_lat_r.force.Z	femur_lat_meniscii_r.femur_lat_r.torque.X	femur_lat_meniscii_r.femur_lat_r.torque.Y	femur_lat_meniscii_r.femur_lat_r.torque.Z	femur_lat_meniscii_r.meniscus_lat_r.force.X	femur_lat_meniscii_r.meniscus_lat_r.force.Y	femur_lat_meniscii_r.meniscus_lat_r.force.Z	femur_lat_meniscii_r.meniscus_lat_r.torque.X	femur_lat_meniscii_r.meniscus_lat_r.torque.Y	femur_lat_meniscii_r.meniscus_lat_r.torque.Z	femur_med_meniscii_r.femur_med_r.force.X	femur_med_meniscii_r.femur_med_r.force.Y	femur_med_meniscii_r.femur_med_r.force.Z	femur_med_meniscii_r.femur_med_r.torque.X	femur_med_meniscii_r.femur_med_r.torque.Y	femur_med_meniscii_r.femur_med_r.torque.Z	femur_med_meniscii_r.meniscus_med_r.force.X	femur_med_meniscii_r.meniscus_med_r.force.Y	femur_med_meniscii_r.meniscus_med_r.force.Z	femur_med_meniscii_r.meniscus_med_r.torque.X	femur_med_meniscii_r.meniscus_med_r.torque.Y	femur_med_meniscii_r.meniscus_med_r.torque.Z	femur_med_tibia_r.tibia_upper_r.force.X	femur_med_tibia_r.tibia_upper_r.force.Y	femur_med_tibia_r.tibia_upper_r.force.Z	femur_med_tibia_r.tibia_upper_r.torque.X	femur_med_tibia_r.tibia_upper_r.torque.Y	femur_med_tibia_r.tibia_upper_r.torque.Z	femur_med_tibia_r.femur_med_r.force.X	femur_med_tibia_r.femur_med_r.force.Y	femur_med_tibia_r.femur_med_r.force.Z	femur_med_tibia_r.femur_med_r.torque.X	femur_med_tibia_r.femur_med_r.torque.Y	femur_med_tibia_r.femur_med_r.torque.Z	femur_lat_tibia_r.tibia_upper_r.force.X	femur_lat_tibia_r.tibia_upper_r.force.Y	femur_lat_tibia_r.tibia_upper_r.force.Z	femur_lat_tibia_r.tibia_upper_r.torque.X	femur_lat_tibia_r.tibia_upper_r.torque.Y	femur_lat_tibia_r.tibia_upper_r.torque.Z	femur_lat_tibia_r.femur_lat_r.force.X	femur_lat_tibia_r.femur_lat_r.force.Y	femur_lat_tibia_r.femur_lat_r.force.Z	femur_lat_tibia_r.femur_lat_r.torque.X	femur_lat_tibia_r.femur_lat_r.torque.Y	femur_lat_tibia_r.femur_lat_r.torque.Z	aACL_R	pACL_R	aPCL_R	pPCL_R	aMCL_R	mMCL_R	pMCL_R	aLCL_R	mLCL_R	pLCL_R	aPCL_L	pPCL_L	aMCL_L	aLCL_L
      0.16356330	     11.47803344	      8.38032427	      9.01389097	      3.86865534	      4.49575122	      4.86919403	      0.00000000	    169.62556502	    126.23453899	    280.33959745	    132.79688252	      8.34094721	      6.00424178	      3.10824323	      3.65462661	      6.16217595	      5.06210672	      3.26555305	    102.32160949	      5.41114228	      8.23180565	      6.18647574	     27.61108792	     18.60208543	      5.32027377	      3.66653751	      6.25191901	     53.24020007	     31.19616726	     33.20598254	     44.61785950	      0.00000000	      0.00000000	      0.00000000	      0.00000000	      0.00000000	      0.00000000	     35.62798666	      1.66632060	      1.90981669	     24.82177090	     40.49355411	     10.73016839	     11.47803344	      8.38032427	      9.01389097	      3.86865534	      4.49575122	      4.86919403	      0.00000000	      6.21183360	     12.26216142	     10.58936721	      2.20732417	      8.34094721	      6.00424178	      3.10824323	      3.65462661	      6.16217595	      5.44217220	      3.26555305	      2.27882382	      5.41114228	      8.23180565	      6.18647574	     27.61108792	     18.60208543	      5.32027377	      3.66653751	      6.25191901	     17.08888238	      0.00000000	      0.00000000	      0.00000000	     21.19233073	     10.01599024	     50.97677757	     51.07354015	      5.47061960	      4.89519648	     13.29412225	      7.11336383	     18.24324911	      2.87610788	      8.87235024	      2.78662149	     36.41477396	     36.41477396	     13.53473240	     13.53473240	     30.89303034	     30.89303034	     43.23793822	    106.64142384	     14.58224633	     -8.49724473	      1.04739171	     16.59670777	    -43.23793822	   -106.64142384	    -14.58224633	      3.01893420	     -1.40736314	      2.27958275	     10.35498075	     10.70335030	      8.31711005	     -3.12617568	     -0.24722088	      4.18747925	    -10.35498075	    -10.70335030	     -8.31711005	     -0.06928407	      0.06213344	      0.02912719	   -807.78142875	   -737.66226199	    233.35556407	    -17.05024603	     18.13430133	     -1.85985276	    807.78142875	    737.66226199	   -233.35556407	    108.17361780	    -14.49399511	    328.79906363	    -14.13426077	    -18.05348663	     -5.94802765	      0.58729161	     -0.49788967	      0.11588113	     14.13426077	     18.05348663	      5.94802765	     -2.85784095	      0.35601044	      5.71024366	     -9.74588888	      0.00000000	    565.64766535	    379.08319188	      0.00000000	      0.00000000	      0.00000000	      0.00000000	      0.00000000	      0.00000000	      0.00000000	      0.00000000	      0.00000001	      0.00000000
      0.16383600	     11.46477370	      8.37057249	      9.00327660	      3.86433771	      4.49102619	      4.86316056	      0.00000000	    169.78287932	    126.03096578	    280.22772569	    132.86682831	      8.33112981	      5.99760305	      3.21530684	      3.65029703	      6.15433116	      5.06040333	      3.26188246	    102.37602362	      5.40482017	      8.22216649	      6.17911970	     27.59311315	     18.58158613	      5.31420693	      3.66357233	      6.24912592	     53.46299540	     31.19092366	     33.19834236	     44.60098802	      0.00000000	      0.00000000	      0.00000000	      0.00000000	      0.00000000	      0.00000000	     35.67325916	      1.68117421	      1.93402071	     24.38307554	     40.67014671	     10.77458562	     11.46477370	      8.37057249	      9.00327660	      3.86433771	      4.49102619	      4.86316056	      0.00000000	      6.20414943	     12.24737561	     10.57727792	      2.20487218	      8.33112981	      5.99760305	      3.21530684	      3.65029703	      6.15433116	      5.43733967	      3.26188246	      2.27624793	      5.40482017	      8.22216649	      6.17911970	     27.59311315	     18.58158613	      5.31420693	      3.66357233	      6.24912592	     17.06624426	      0.00000000	      0.00000000	      0.00000000	     21.18604059	     10.01204962	     50.92307001	     51.04490167	      5.46455275	      4.88971851	     13.27752808	      7.10395658	     18.22573674	      2.87295012	      8.85998538	      2.78289873	     36.37404195	     36.37404195	     13.51837888	     13.51837888	     30.87820074	     30.87820074	     43.60781253	    104.93752843	     14.00204779	     -8.21210249	      1.05540656	     16.76093591	    -43.60781253	   -104.93752843	    -14.00204779	      2.95510964	     -1.40483668	      2.23016420	     10.50338692	     10.64635735	      8.24698362	     -3.09860362	     -0.25053307	      4.24619832	    -10.50338692	    -10.64635735	     -8.24698362	     -0.07015720	      0.06623019	      0.02747032	   -811.53762943	   -737.64541219	    233.08624103	    -17.03184991	     18.21156639	     -1.83392511	    811.53762943	    737.64541219	   -233.08624103	    108.06245252	    -14.57277534	    330.29130911	    -13.72221946	    -17.45112537	     -5.78975498	      0.56834230	     -0.48424126	      0.11289475	     13.72221946	     17.45112537	      5.78975498	     -2.77882183	      0.34585897	      5.54323616	     -9.65742823	      0.00000000	    569.02718871	    380.79054752	      0.00000000	      0.00000000	      0.00000000	      0.00000000	      0.00000000	      0.00000000	      0.00000000	      0.00000000	      0.00000001	      0.00000000
      0.16406037	     11.45388361	      8.36257545	      8.99457226	      3.86079688	      4.48715137	      4.85821251	      0.00000000	    169.90900058	    125.86870175	    280.13878877	    132.92141215	      8.32307904	      5.99215868	      3.29431130	      3.64674652	      6.14789793	      5.05893106	      3.25887228	    102.41832335	      5.39963574	      8.21426193	      6.17308743	     27.57837350	     18.56477643	      5.30923170	      3.66114090	      6.24680459	     53.64696732	     31.18605670	     33.19135938	     44.58605200	      0.00000000	      0.00000000	      0.00000000	      0.00000000	      0.00000000	      0.00000000	     35.71017370	      1.69352297	      1.95420608	     24.47920686	     40.81536773	     10.81115108	     11.45388361	      8.36257545	      8.99457226	      3.86079688	      4.48715137	      4.85821251	      0.00000000	      6.19784806	     12.23523296	     10.56736388	      2.20286132	      8.32307904	      5.99215868	      3.29431130	      3.64674652	      6.14789793	      5.43337647	      3.25887228	      2.27413550	      5.39963574	      8.21426193	      6.17308743	     27.57837350	     18.56477643	      5.30923170	      3.66114090	      6.24680459	     17.04767606	      0.00000000	      0.00000000	      0.00000000	     21.18079527	     10.00877677	     50.87889129	     51.02139490	      5.45954453	      4.88518791	     13.26390961	      7.09623761	     18.21135315	      2.87036069	      8.84991038	      2.77987259	     36.34063826	     36.34063826	     13.50496824	     13.50496824	     30.86604035	     30.86604035	     44.60780305	    104.64704678	     13.80008335	     -8.12128134	      1.08344132	     17.17475783	    -44.60780305	   -104.64704678	    -13.80008335	      2.94166472	     -1.43081704	      2.20216585	     10.60995309	     10.58568037	      8.19813663	     -3.08006722	     -0.25278314	      4.28822587	    -10.60995309	    -10.58568037	     -8.19813663	     -0.07015923	      0.06896969	      0.02611371	   -814.64197916	   -736.89985565	    233.63455226	    -17.02680873	     18.29548641	     -1.83350349	    814.64197916	    736.89985565	   -233.63455226	    108.27740467	    -14.64227291	    331.53053600	    -13.35720425	    -16.90128897	     -5.70913028	      0.55300946	     -0.47398210	      0.10947228	     13.35720425	     16.90128897	      5.70913028	     -2.73328347	      0.33750544	      5.39556881	     -9.60738579	      0.00000000	    571.80788843	    382.20735466	      0.00000000	      0.00000000	      0.00000000	      0.00000000	      0.00000000	      0.00000000	      0.00000000	      0.00000000	      0.00000001	      0.00000000
      0.16439987	     11.43744119	      8.35052118	      8.98145197	      3.85545944	      4.48131067	      4.85075370	      0.00000000	    170.09283143	    125.63111600	    280.00290311	    132.99795253	      8.31094389	      5.98395175	      3.40029672	      3.64139470	      6.13820077	      5.05654308	      3.25433479	    102.47717230	      5.39182119	      8.20234728	      6.16399496	     27.55615703	     18.53944007	      5.30173220	      3.65747623	      6.24325295	     53.92584235	     31.17614729	     33.17852841	     44.56114755	      0.00000000	      0.00000000	      0.00000000	      0.00000000	      0.00000000	      0.00000000	     35.76513935	      1.71245781	      1.98523047	     22.23999622	     41.03426804	     10.86586411	     11.43744119	      8.35052118	      8.98145197	      3.85545944	      4.48131067	      4.85075370	      0.00000000	      6.18834991	     12.21690043	     10.55241984	      2.19983015	      8.31094389	      5.98395175	      3.40029672	      3.64139470	      6.13820077	      5.42740217	      3.25433479	      2.27095128	      5.39182119	      8.20234728	      6.16399496	     27.55615703	     18.53944007	      5.30173220	      3.65747623	      6.24325295	     17.01968135	      0.00000000	      0.00000000	      0.00000000	     21.17273981	     10.00377282	     50.81206919	     50.98592570	      5.45193818	      4.87829228	     13.24336458	      7.08459493	     18.18963412	      2.86645775	      8.83483506	      2.77535687	     36.29028571	     36.29028571	     13.48475417	     13.48475417	     30.84771175	     30.84771175	     44.72455719	    102.87218755	     13.19157099	     -7.82207062	      1.08101118	     17.23720037	    -44.72455719	   -102.87218755	    -13.19157099	      2.87464449	     -1.41702297	      2.15682866	     10.93584908	     10.57570749	      8.09137317	     -3.03560752	     -0.26122147	      4.42038264	    -10.93584908	    -10.57570749	     -8.09137317	     -0.07376593	      0.07859810	      0.02076839	   -818.98048799	   -735.18452585	    233.38636231	    -16.97774385	     18.38305701	     -1.84021151	    818.98048799	    735.18452585	   -233.38636231	    108.14444381	    -14.72992787	    333.26262912	    -12.85451815	    -15.97874578	     -5.36309722	      0.52127247	     -0.45273158	      0.09986021	     12.85451815	     15.97874578	      5.36309722	     -2.56945294	      0.32370753	      5.19372563	     -9.54593083	      0.00000000	    575.97915118	    384.28149963	      0.00000000	      0.00000000	      0.00000000	      0.00000000	      0.00000000	      0.00000000	      0.00000000	      0.00000000	      0.00000001	      0.00000000
